<?xml version="1.0" encoding="utf-8"?>
<!-- Generator: Adobe Illustrator 26.2.1, SVG Export Plug-In . SVG Version: 6.00 Build 0)  -->
<svg version="1.1" id="Capa_1" xmlns="http://www.w3.org/2000/svg" xmlns:xlink="http://www.w3.org/1999/xlink" x="0px" y="0px"
	 viewBox="0 0 400 63.832" enable-background="new 0 0 400 63.832" xml:space="preserve">
<g>
	<path fill="#FFFFFF" d="M147.42,28.258c0,0.047-0.069,16.843-0.076,18.793c-0.003,0.234-0.016,0.259-0.143,0.399
		c-2.748,2.998-9.706,5.437-18.037,5.403c-14.067-0.056-20.795-11.159-20.739-24.607c0.066-16.64,11.185-24.234,21.705-24.187
		c6.245,0.023,11.841,1.395,16.014,5.937c0.123,0.138,0.138,0.178,0.138,0.411c-0.009,1.56-0.051,12.402-0.051,12.475
		c0,0.089-0.096,0.121-0.147,0.047c-3.252-4.41-7.474-7.046-13.243-7.068c-8.68-0.038-12.029,6.604-12.06,13.624
		c-0.027,6.789,2.247,13.055,9.348,13.086c1.995,0.012,3.6-0.464,4.767-1.515c0.053-0.043,0.107-0.17,0.112-0.315
		c0.002-0.609,0.011-2.989,0.018-4.836c0.018-4.611-1.174-7.151-1.475-7.722c-0.052-0.096-0.025-0.151,0.082-0.151
		c0.062,0.002,12.487,0.052,13.642,0.055C147.395,28.089,147.422,28.127,147.42,28.258"/>
	<path fill="#FFFFFF" d="M221.387,11.9c-6.945-0.027-10.665,3.323-12.442,7.896c-2.92-5.573-9.863-7.987-19.631-8.028
		c-12.908-0.053-21.069,3.352-24.593,7.251l-0.128-0.002c0,0,0.025-5.963,0.025-6.074c0-0.105-0.029-0.147-0.136-0.147
		c-1.299-0.007-11.395-0.045-11.498-0.045c-0.082,0-0.143,0.027-0.143,0.141c0,0.11-0.158,38.675-0.158,38.776
		c0,0.115,0.029,0.154,0.136,0.154c0.078,0.004,10.826,0.051,12.237,0.054c0.118,0.002,0.149-0.04,0.152-0.161
		c0-0.11,0.031-6.878,0.031-6.878c0.044-11.395,3.477-16.709,8.395-21.067c3.263-2.892,8.855-5.267,13.816-5.245
		c9.617,0.04,11.022,4.595,10.994,11.205c-0.047,11.212-4.709,14.435-8.949,14.419c-2.515-0.009-4.383-1.882-4.372-4.657
		c0.013-2.785,1.699-5.196,4.995-6.829c2.049-1.022,4.568-1.225,5.455-1.323c0.156-0.02,0.181-0.035,0.192-0.178
		c0.145-2.228-0.245-5.559-0.629-6.414c-0.043-0.087-0.076-0.11-0.208-0.101c-1.205,0.078-5.459,0.419-9.931,2.144
		c-6.994,2.698-12.279,8.537-12.305,15.727c-0.029,6.489,4.867,10.536,12.383,10.566c7.367,0.031,11.464-3.073,13.239-5.034h0.055
		c0,0-0.058,14.139-0.058,14.271c0,0.132,0.042,0.17,0.185,0.17c0.134,0,10.288,0.045,11.701,0.051c0.125,0,0.158-0.045,0.158-0.167
		c0.013-2.229,0.125-29.119,0.125-29.349c0.019-4.762,1.571-10.311,6.952-10.29c5.064,0.022,6.112,5.474,6.093,10.237
		c-0.027,5.958-2.188,10.136-6.316,10.116c-1.658-0.009-2.941-0.547-3.919-1.446c-0.062-0.056-0.12-0.036-0.12,0.051
		c0,0.087-0.027,7.543-0.027,7.677c0,0.132,0.024,0.225,0.122,0.326c2.032,2.025,4.857,3.526,7.726,3.538
		c5.889,0.021,14.022-4.807,14.093-22.677C235.122,21.071,231.014,11.936,221.387,11.9"/>
	<path fill="#FFFFFF" d="M308.536,43.887c0-0.147,0.03-7,0.03-7.099c0-0.1-0.06-0.064-0.083-0.017
		c-2.213,4.214-6.157,6.952-12.006,6.925c-7.262-0.027-12.328-5.171-12.292-13.888c0.029-6.711,2.817-14.348,12.591-14.314
		c5.541,0.027,9.81,3.783,11.593,7.588c0.038,0.092,0.127,0.092,0.127-0.049c0-0.139,0.036-8.882,0.036-9.025
		c0-0.14-0.027-0.221-0.116-0.33c-2.863-3.504-7.777-6.108-13.057-6.131c-12.866-0.053-18.867,8.242-18.923,21.356
		c-0.048,11.62,6.073,21.48,18.745,21.534c7.418,0.028,11.689-3.401,13.294-6.26C308.515,44.106,308.532,44.032,308.536,43.887
		 M287.503,29.823c-0.027,6.592,3.496,10.792,8.982,10.816c6.45,0.032,9.295-4.568,10.556-6.938
		c0.051-0.098,0.101-0.151,0.232-0.151c0.138,0,1.973,0.009,2.95,0.012c0.996,0.004,1.408,0.408,1.402,1.597
		c-0.007,1.941-0.036,8.436-0.041,9.822c0,0.134-0.023,0.21-0.073,0.316c-1.094,2.246-5.245,8.488-16.345,8.441
		c-15.608-0.063-22.244-11.067-22.188-24.85c0.067-16.363,8.298-24.495,22.391-24.437c6.207,0.025,11.759,2.48,16.193,7.842
		c0.094,0.114,0.157,0.214,0.157,0.373c0,0.163-0.054,12.752-0.063,14.245c0,0.852-0.325,1.359-1.184,1.357
		c-0.755-0.005-2.5-0.011-2.638-0.011c-0.217-0.002-0.241-0.049-0.301-0.172c-0.067-0.125-1.169-2.259-1.169-2.259
		c-2.073-3.657-5.212-6.728-9.604-6.744C292.805,19.061,287.541,20.894,287.503,29.823"/>
	<path fill="#FFFFFF" d="M326.627,7.051c0.011-2.661-1.393-3.296-4.352-3.307c-2.959-0.011-4.365,0.607-4.379,3.267
		c-0.011,2.038,1.248,3.292,4.352,3.31C325.352,10.331,326.617,9.082,326.627,7.051 M330.163,6.903
		c-0.006,1.857-0.95,6.497-7.926,6.467c-6.972-0.024-7.874-4.679-7.867-6.53c0.027-6.164,5.807-6.139,7.921-6.13
		C324.403,0.719,330.193,0.744,330.163,6.903"/>
	<path fill="#FFFFFF" d="M387.881,16.71c-0.135,0-6.704-0.027-6.862-0.027c-0.15,0-0.228,0.047-0.281,0.217
		c-0.946,2.636-8.63,24.133-8.668,24.225c-0.037,0.107-0.137,0.102-0.163,0c-0.024-0.096-8.804-24.285-8.831-24.363
		c-0.044-0.119-0.127-0.156-0.243-0.156c-1.317-0.005-16.936-0.067-17.041-0.067c-0.112,0-0.144-0.062-0.139-0.179
		c0.031-1.333,0.263-9.668,0.263-9.764c0-0.105-0.024-0.174-0.162-0.174c-0.079,0-2.234-0.009-2.323-0.009
		c-0.094,0-0.149,0.035-0.179,0.127c-2.865,7.985-9.248,13.065-20.759,13.015c-1.195-0.004-3.101-0.183-3.878-0.551
		c-0.051-0.027-0.096-0.02-0.096,0.051c-0.007,1.665-0.125,29.894-0.125,29.954c0,0.058,0.013,0.073,0.067,0.073
		c0.058,0,7.247,0.031,7.297,0.031c0.043,0,0.07-0.023,0.07-0.07c0-0.054,0.109-26.296,0.109-26.443c0-0.14,0.059-0.212,0.279-0.212
		c0.217,0.004,11.806,0.044,11.973,0.047c0.168,0,0.297,0.051,0.297,0.248c0,0.194-0.383,10.295-0.413,16.869
		c-0.027,7.171,2.73,11.049,9.659,11.078c4.104,0.018,7.099-1.93,8.057-3.028c0.06-0.067,0.087-0.114,0.087-0.288
		c0-0.094,0.023-5.483,0.023-5.55c0-0.085-0.059-0.069-0.09-0.025c-0.877,1.629-2.703,3.127-5.198,3.113
		c-3.97-0.013-5.483-2.602-5.463-7.204c0.02-4.956,0.332-9.964,0.355-14.979c0-0.163,0.125-0.201,0.246-0.201
		c0.108,0,11.857,0.031,12.017,0.031c0.116,0,0.186,0.029,0.234,0.156c0.056,0.149,9.276,25.772,10.119,28.105
		c0.037,0.11,0.025,0.199-0.013,0.299c-0.03,0.096-3.04,8.51-3.089,8.651c-0.044,0.138-0.065,0.178,0.101,0.178
		c0.161,0,7.182,0.029,7.316,0.031c0.149,0,0.211-0.054,0.252-0.161c0.027-0.082,15.309-42.625,15.372-42.799
		C388.12,16.781,388.025,16.71,387.881,16.71 M392.232,15.067c-0.204,0.679-15.953,44.422-17.194,47.843
		c-0.065,0.185-0.185,0.212-0.321,0.212c-0.15-0.003-14.047-0.058-14.155-0.058c-0.117,0-0.157-0.06-0.119-0.159
		c0.448-1.216,4.273-11.524,4.305-11.623c0.051-0.131,0.058-0.181,0.006-0.321c-0.877-2.462-8.237-22.978-9.099-25.051
		c-0.04-0.082-0.091-0.134-0.228-0.136c-0.133,0-6.335-0.022-6.488-0.027c-0.153,0-0.198,0.089-0.205,0.134
		c-0.048,2.212-0.283,11.54-0.283,11.54c-0.012,3.624,1.127,4.265,2.578,4.267c1.393,0.004,2.562-1.357,3.136-3.037
		c0.031-0.085,0.093-0.107,0.198-0.107c0.535,0,2.48,0.008,3.175,0.011c0.804,0,1.406,0.399,1.404,1.408
		c-0.002,0.565-0.03,6.486-0.036,8.621c-0.002,0.163-0.013,0.232-0.094,0.332c-1.364,1.728-4.653,4.847-11.264,4.821
		c-8.558-0.036-12.838-4.182-12.8-13.997c0.02-4.579,0.316-12.718,0.269-13.852c-0.002-0.145-0.024-0.194-0.166-0.199
		c-0.201,0-5.399-0.022-5.504-0.022c-0.102,0-0.138,0-0.14,0.14c0,0.136-0.109,26.484-0.109,26.617c0,0.138-0.049,0.185-0.167,0.185
		c-1.516-0.009-13.587-0.058-13.68-0.058c-0.101,0-0.194,0-0.194-0.203c0-0.205,0.156-37.167,0.156-37.247
		c0-0.083,0.058-0.098,0.12-0.071c0.513,0.23,3.332,1.417,7.012,1.431c8.902,0.038,15.747-3.528,18.363-12.982
		c0.031-0.105,0.095-0.152,0.275-0.152c1.752,0.007,6.576,0.027,7.385,0.032c0.665,0.002,0.977,0.413,0.961,1.017
		c-0.013,0.589-0.176,6.887-0.236,9.032c-0.005,0.17,0.048,0.19,0.152,0.19c0.1,0,12.091,0.047,15.468,0.062
		c0.674,0,1.154,0.393,1.363,1c0.906,2.647,3.892,11.369,5.888,17.084c0.023,0.058,0.078,0.065,0.097,0
		c2.136-6.282,5.747-16.385,6.264-17.831c0.041-0.112,0.121-0.194,0.336-0.194c0.17,0,11.687,0.047,12.565,0.051
		C392.186,13.77,392.498,14.15,392.232,15.067"/>
	<path fill="#FFFFFF" d="M269.073,40.078c-1.649,2.327-6.322,5.066-10.072,5.05c-6.952-0.034-10.187-4.25-10.151-12.841
		c0.035-9.375,2.595-11.884,6.001-11.871c3.197,0.011,4.245,2.096,4.225,6.588c-0.018,3.878-2.241,6.635-5.499,6.624
		c-0.993,0-1.699-0.112-2.216-0.261c-0.078-0.023-0.116,0.027-0.116,0.111c0.079,2.129,0.549,4.655,1.23,5.916
		c0.062,0.118,0.13,0.157,0.246,0.192c0.627,0.179,1.756,0.389,3.307,0.391c3.523,0.015,14.463-1.158,14.519-14.388
		c0.034-7.485-3.285-13.499-15.463-13.553c-12.25-0.047-17.606,8.208-17.657,20.879c-0.056,12.794,7.326,20.416,17.824,20.46
		c6.738,0.027,11.991-3.171,13.77-5.204c0.14-0.165,0.172-0.203,0.174-0.456c0.007-1.326,0.031-7.471,0.031-7.578
		C269.225,40.015,269.134,40.008,269.073,40.078"/>
	<path fill="#FFFFFF" d="M389.29,51.066c0.271,0.283,0.596,0.326,0.667-0.08c0.252-1.479,0.729-4.459,0.981-5.57
		c0.123-0.554,0.442-0.663,1.002-0.77c0.465-0.091,1.257-0.151,2.177-0.051c1.189,0.13,1.7,0.817,1.7,1.661
		c-0.005,1.06-0.645,2.021-1.908,2.51c-0.239,0.087-0.239,0.137-0.155,0.315c0.409,0.828,1.122,1.769,1.605,2.218
		c0.439,0.402,0.797,0.215,1.042,0.011c0.977-0.812,1.446-2.033,1.447-3.392c0.014-2.662-1.604-4.746-4.831-4.764
		c-2.897-0.009-4.9,2.107-4.91,4.727C388.103,49.071,388.555,50.283,389.29,51.066 M387.009,47.87
		c0.012-3.255,2.498-5.786,6.026-5.768c3.821,0.016,5.976,2.56,5.966,5.818c-0.009,1.966-0.986,3.74-2.321,4.588
		c-0.815,0.509-1.428,0.455-2.285-0.467c-0.553-0.598-1.645-2.098-2.067-3.057c-0.245-0.568-0.138-0.923,0.44-1.015
		c1.087-0.177,1.663-0.735,1.664-1.572c0-0.232-0.091-0.518-0.381-0.622c-0.326-0.121-1.179-0.123-1.621-0.043
		c-0.31,0.063-0.357,0.19-0.431,0.529c-0.236,0.988-0.914,4.972-1.076,5.893c-0.14,0.777-0.839,0.833-1.542,0.384
		C387.924,51.601,387,49.862,387.009,47.87"/>
	<path fill="#FFFFFF" d="M52.036,30.841c-0.029,6.44-5.637,11.644-12.524,11.617c-6.885-0.028-12.448-5.275-12.42-11.72
		c0.025-6.443,5.629-11.64,12.515-11.612C46.492,19.158,52.063,24.4,52.036,30.841 M75.122,14.295
		c-0.196-0.607-0.843-0.935-1.451-0.745l-13.278,4.262c-0.719,0.225-0.989,0.08-1.573-0.476c-4.561-4.689-11.456-7.693-19.175-7.724
		c-13.783-0.058-24.997,9.378-25.046,21.076c-0.002,0.186,0.002,0.379,0.007,0.565c0,0.054,0,0.112,0.002,0.165
		c0.029,0.761-0.114,1.114-0.873,1.359L1.802,36.609c-0.607,0.194-0.941,0.841-0.747,1.449l2.95,9.228
		c0.194,0.61,0.843,0.939,1.448,0.745l13.281-4.26c0.756-0.239,0.98-0.122,1.502,0.394c4.434,4.59,11.423,7.775,19.237,7.806
		c13.787,0.056,25.004-9.382,25.053-21.076c0-0.257-0.007-0.504-0.013-0.759c-0.016-0.75,0.116-1.071,0.808-1.312l12.004-3.85
		c0.607-0.194,0.942-0.846,0.748-1.453L75.122,14.295z"/>
</g>
</svg>
